<svg width="78" height="78" viewBox="0 0 78 78" fill="none" xmlns="http://www.w3.org/2000/svg">
<g clip-path="url(#clip0_2641_2598)">
<path d="M39 78C60.5391 78 78 60.5391 78 39C78 17.4609 60.5391 0 39 0C17.4609 0 0 17.4609 0 39C0 60.5391 17.4609 78 39 78Z" fill="#FFBFAC"/>
<path d="M22.0963 35.8457C26.6368 35.8457 30.3176 32.1649 30.3176 27.6244C30.3176 23.0839 26.6368 19.4031 22.0963 19.4031C17.5557 19.4031 13.8749 23.0839 13.8749 27.6244C13.8749 32.1649 17.5557 35.8457 22.0963 35.8457Z" fill="#FF003C"/>
<path d="M22.5233 25.9564C22.882 24.9145 23.6165 24.5444 24.7039 24.5444C32.2989 24.5672 39.894 24.5558 47.489 24.5558C48.4854 24.5558 49.1572 25.0341 49.3678 25.8938C49.4191 26.0987 49.4191 26.3208 49.4191 26.5371C49.4191 28.769 49.4191 31.0065 49.4191 33.2383V33.7222C50.1592 33.7222 50.8652 33.7222 51.5655 33.7222C52.1861 33.7222 52.4878 33.9215 52.4878 34.3257C52.4878 34.7357 52.1804 34.9406 51.5712 34.9406C50.8709 34.9406 50.1706 34.9406 49.4475 34.9406V50.2389C50.387 50.2389 51.3036 50.2503 52.2202 50.2275C52.3227 50.2275 52.4537 50.0453 52.522 49.9201C53.45 48.2234 54.8677 47.3068 56.8035 47.3466C58.631 47.3865 59.9861 48.2974 60.8344 49.9144C60.971 50.1706 61.102 50.2674 61.381 50.2503C61.7567 50.2275 62.1382 50.2389 62.5197 50.2503C62.7873 50.2503 62.9125 50.1307 62.9125 49.8574C62.9125 48.2063 62.9353 46.5552 62.884 44.9041C62.8727 44.5682 62.6449 44.1811 62.4001 43.9306C61.8251 43.3385 61.1874 42.809 60.5554 42.2738C60.4416 42.177 60.2423 42.1371 60.0829 42.1371C57.6062 42.1314 55.1296 42.1371 52.6473 42.1314C51.6623 42.1314 51.2808 41.7443 51.2751 40.7536C51.2751 39.8484 51.2751 38.9374 51.2751 38.0322C51.2751 36.9333 51.6224 36.5917 52.7383 36.5917C54.4065 36.5917 56.069 36.5917 57.7372 36.5917C57.8852 36.5917 58.0275 36.5917 58.2724 36.5917C58.0959 36.1476 57.9763 35.7434 57.777 35.3904C57.5948 35.0602 57.2419 34.9577 56.8661 34.9634C56.1886 34.9634 55.511 34.9634 54.8335 34.9634C54.3951 34.9577 54.1446 34.7528 54.1219 34.3998C54.0991 34.0468 54.3211 33.7678 54.7026 33.7621C55.5566 33.7507 56.4106 33.7109 57.2589 33.7906C58.1528 33.876 58.7677 34.4168 59.0751 35.2652C59.7299 37.0814 60.3619 38.909 61.0337 40.7252C61.1475 41.0383 61.3753 41.3401 61.6144 41.5735C62.104 42.0574 62.6335 42.5015 63.1573 42.957C63.8121 43.5263 64.1309 44.2323 64.1252 45.0977C64.1138 46.6805 64.1252 48.269 64.1252 49.8517C64.1252 50.8652 63.5217 51.4744 62.514 51.4801C62.1211 51.4801 61.734 51.4801 61.307 51.4801C61.4094 53.1084 60.9027 54.4691 59.6843 55.5167C58.7165 56.3479 57.5721 56.7066 56.2967 56.6041C54.0592 56.4276 51.8729 54.5147 52.0551 51.5085H35.5556C35.6524 53.1084 35.1456 54.4691 33.9273 55.5167C32.9594 56.3479 31.815 56.7066 30.5397 56.6041C28.2851 56.4276 26.1159 54.4919 26.3038 51.4801C25.7913 51.4801 25.2789 51.4516 24.7722 51.4857C23.6848 51.5598 22.9105 51.1555 22.5233 50.1022V25.9678V25.9564ZM23.7417 45.7012C23.7417 47.062 23.7417 48.3601 23.7417 49.6582C23.7417 50.0453 23.9581 50.2389 24.368 50.2446C24.9886 50.256 25.6148 50.2332 26.2354 50.256C26.5201 50.2674 26.6511 50.1706 26.782 49.9144C27.6531 48.269 29.0366 47.358 30.8984 47.3466C32.7772 47.3352 34.1778 48.2348 35.0602 49.8973C35.2026 50.1649 35.3449 50.2503 35.641 50.2503C39.6776 50.2389 43.7086 50.2446 47.7452 50.2446H48.1779V45.6955H47.7224C45.149 45.6955 42.5756 45.6955 40.0021 45.6955C39.8655 45.6955 39.7289 45.7126 39.5979 45.6785C39.2677 45.6044 39.0741 45.3938 39.0969 45.0408C39.1197 44.7106 39.3189 44.5284 39.6378 44.4828C39.7573 44.4657 39.8826 44.4771 40.0021 44.4771C42.5756 44.4771 45.149 44.4771 47.7224 44.4771C47.8705 44.4771 48.0128 44.4771 48.1836 44.4771C48.1893 44.3063 48.2007 44.1754 48.2007 44.0444C48.2007 38.2087 48.2007 32.3729 48.2007 26.5371C48.2007 25.9222 48.0527 25.7742 47.4321 25.7742C39.7972 25.7742 32.1623 25.7742 24.5217 25.7742C23.8784 25.7742 23.736 25.9166 23.736 26.5599C23.736 32.3843 23.736 38.203 23.736 44.0274V44.4714H24.2826C28.3591 44.4714 32.4356 44.4714 36.5064 44.4714C36.6259 44.4714 36.7512 44.4657 36.8708 44.4714C37.2124 44.5056 37.4743 44.7675 37.4515 45.0806C37.4287 45.4222 37.2351 45.6272 36.8935 45.6785C36.7626 45.6955 36.6259 45.6841 36.4893 45.6841C32.4128 45.6841 28.3363 45.6841 24.2655 45.6841C24.1061 45.6841 23.9467 45.6841 23.736 45.6841L23.7417 45.7012ZM30.9154 55.3857C32.8056 55.3914 34.3258 53.8941 34.3486 51.9982C34.3713 50.1193 32.8113 48.5479 30.9268 48.5479C29.0594 48.5479 27.5165 50.0965 27.5108 51.964C27.5108 53.8371 29.0366 55.3744 30.9154 55.3801V55.3857ZM56.6839 55.3857C58.5684 55.3857 60.0943 53.8713 60.1056 51.9868C60.117 50.1193 58.5798 48.565 56.7124 48.5536C54.8278 48.5422 53.2565 50.1079 53.2678 51.9868C53.2735 53.8656 54.8051 55.3914 56.6896 55.3914L56.6839 55.3857ZM52.5163 40.8618H59.7811C59.4509 39.9224 59.1264 39.0342 58.8246 38.1403C58.7392 37.8841 58.614 37.793 58.335 37.793C56.5188 37.8101 54.7083 37.7987 52.8921 37.7987C52.7725 37.7987 52.6586 37.8101 52.5163 37.8158V40.8561V40.8618Z" fill="black"/>
<path d="M33.7052 36.2331C34.1607 36.8252 34.5934 37.3775 35.0204 37.9354C35.3222 38.334 35.3165 38.6984 35.0033 38.9318C34.7073 39.1538 34.36 39.0684 34.0639 38.6927C33.5401 38.0208 33.022 37.3433 32.4982 36.6715C32.4356 36.5918 32.3616 36.5121 32.2192 36.347C32.2192 37.0245 32.2192 37.5995 32.2192 38.1746C32.2192 38.334 32.2534 38.5446 32.168 38.6471C32.0313 38.8179 31.8207 38.983 31.6157 39.0286C31.3367 39.0912 31.1261 38.9033 31.0464 38.6243C31.0065 38.482 31.0065 38.3283 31.0065 38.1803C31.0065 36.4893 31.0065 34.7984 31.0065 33.1074C31.0065 32.3957 31.1887 32.2192 31.8947 32.2192C32.3388 32.2192 32.7886 32.2192 33.2327 32.2192C34.2575 32.2306 35.1058 32.9081 35.2709 33.8533C35.4474 34.8553 34.9293 35.7492 33.9386 36.1363C33.876 36.1591 33.8134 36.1876 33.7052 36.2331ZM32.2534 35.009C32.669 35.009 33.0619 35.0432 33.4433 34.9976C33.8589 34.9464 34.0924 34.5991 34.0753 34.1892C34.0582 33.8077 33.7906 33.4889 33.3978 33.4547C33.0277 33.4206 32.6519 33.449 32.2534 33.449V35.009Z" fill="black"/>
<path d="M37.6906 33.4376V35.0374C38.1347 35.0374 38.5617 35.0374 38.9887 35.0374C39.4727 35.0374 39.7403 35.2595 39.7403 35.6409C39.7403 36.0167 39.467 36.2444 38.9887 36.2558C38.5959 36.2615 38.2031 36.2558 37.8102 36.2615C37.7817 36.2615 37.759 36.2786 37.6963 36.2957V37.8329C38.1803 37.8329 38.6471 37.8329 39.1197 37.8329C39.5866 37.8386 39.8598 38.0777 39.8485 38.4592C39.8371 38.8293 39.5866 39.0456 39.1254 39.0456C38.4763 39.0513 37.8273 39.0513 37.1782 39.0456C36.6658 39.0456 36.4438 38.8406 36.4438 38.3396C36.4381 36.5291 36.4381 34.7129 36.4438 32.9024C36.4438 32.4298 36.6772 32.2192 37.1555 32.2135C37.8159 32.2078 38.482 32.2078 39.1425 32.2135C39.5809 32.2135 39.8485 32.4583 39.8485 32.8227C39.8485 33.1928 39.5809 33.4205 39.1368 33.4262C38.6642 33.4319 38.1917 33.4262 37.6793 33.4262L37.6906 33.4376Z" fill="black"/>
<path d="M42.4617 33.4376V35.0374C42.8944 35.0374 43.3214 35.0374 43.7484 35.0374C44.2323 35.0374 44.5113 35.2538 44.5227 35.6238C44.5341 36.0053 44.238 36.2501 43.7427 36.2558C43.3271 36.2558 42.9115 36.2558 42.4674 36.2558V37.8386C42.9741 37.8386 43.4694 37.8272 43.9648 37.8386C44.4145 37.85 44.6821 38.1289 44.6309 38.5218C44.5853 38.8691 44.3633 39.0456 44.0217 39.0456C43.3043 39.0513 42.5869 39.057 41.8696 39.0456C41.471 39.0399 41.2376 38.8121 41.2376 38.4079C41.2262 36.5689 41.2262 34.7243 41.2376 32.8853C41.2376 32.464 41.4824 32.2305 41.9037 32.2248C42.5926 32.2135 43.2872 32.2135 43.9761 32.2248C44.3918 32.2248 44.6423 32.4697 44.648 32.8284C44.648 33.187 44.4032 33.4319 43.9875 33.4376C43.4922 33.4489 42.9912 33.4376 42.4731 33.4376H42.4617Z" fill="black"/>
<path d="M27.7955 36.2558C27.7955 36.8992 27.7955 37.4913 27.7955 38.0834C27.7955 38.203 27.8012 38.3282 27.7955 38.4478C27.7613 38.8236 27.5051 39.057 27.1578 39.0456C26.8276 39.0342 26.5885 38.8008 26.5828 38.4364C26.5771 36.569 26.5771 34.7015 26.5828 32.8341C26.5828 32.4583 26.8162 32.2306 27.1977 32.2249C27.915 32.2078 28.6324 32.2135 29.3498 32.2249C29.7255 32.2306 29.9817 32.4925 29.9874 32.8284C29.9874 33.1757 29.7255 33.4319 29.3213 33.4376C28.8374 33.449 28.3477 33.4376 27.8296 33.4376V35.0374C28.2452 35.0374 28.6779 35.0374 29.105 35.0374C29.6003 35.0374 29.8508 35.2424 29.8565 35.6353C29.8565 36.0224 29.5946 36.2445 29.1163 36.2558C28.7007 36.2615 28.2794 36.2558 27.8012 36.2558H27.7955Z" fill="black"/>
</g>
<defs>
<clipPath id="clip0_2641_2598">
<rect width="78" height="78" fill="white"/>
</clipPath>
</defs>
</svg>
