<svg width="78" height="78" viewBox="0 0 78 78" fill="none" xmlns="http://www.w3.org/2000/svg">
<g clip-path="url(#clip0_2761_2359)">
<path d="M39 77.9133C60.5391 77.9133 78 60.4718 78 38.9567C78 17.4415 60.5391 0 39 0C17.4609 0 0 17.4415 0 38.9567C0 60.4718 17.4609 77.9133 39 77.9133Z" fill="#D4FDC1"/>
<path d="M23.5196 35.8062C28.0601 35.8062 31.7409 32.1295 31.7409 27.594C31.7409 23.0586 28.0601 19.3818 23.5196 19.3818C18.9791 19.3818 15.2983 23.0586 15.2983 27.594C15.2983 32.1295 18.9791 35.8062 23.5196 35.8062Z" fill="#FF003C"/>
<path d="M50.2387 43.2789C50.8821 43.9216 51.497 44.5358 52.146 45.1841C52.2428 45.0988 52.3453 45.0021 52.4478 44.8998C52.8975 44.4619 53.1993 44.4619 53.6491 44.9111C54.6511 45.9064 55.6475 46.9073 56.6495 47.9082C58.3518 49.6087 60.0713 51.2978 61.7565 53.021C63.3848 54.6816 62.8269 57.4228 60.6918 58.2701C59.445 58.7649 58.2437 58.5886 57.2815 57.6446C54.4917 54.9148 51.7475 52.1394 48.9862 49.3812C48.6445 49.04 48.6502 48.7044 48.9862 48.3575C49.1057 48.2324 49.2651 48.1471 49.3733 48.0732C48.673 47.3737 48.0467 46.7481 47.3977 46.0997C43.6229 48.8296 39.3984 49.785 34.781 48.6533C31.1429 47.7661 28.2507 45.7301 26.1213 42.6534C21.8854 36.5227 22.8647 28.2252 28.3873 23.2148C33.8587 18.25 42.2224 18.0851 47.8873 22.7769C53.7572 27.6337 55.2603 36.6307 50.2273 43.2789H50.2387ZM24.846 34.1966C24.8289 41.7093 30.8981 47.7945 38.4248 47.8172C45.8434 47.84 51.9752 41.7605 51.9923 34.3559C52.0151 26.8148 45.9686 20.7125 38.459 20.6955C30.9721 20.6784 24.8688 26.7352 24.846 34.1966ZM50.3697 48.9149C50.4266 48.9717 50.5006 49.0627 50.586 49.148C53.0399 51.6049 55.4937 54.056 57.9533 56.5071C58.0501 56.6038 58.1469 56.6948 58.2494 56.7801C59.314 57.6218 60.9025 57.127 61.2897 55.8304C61.5174 55.0683 61.3181 54.3972 60.7602 53.8342C58.2494 51.3205 55.7329 48.8125 53.2221 46.3045C53.1708 46.2533 53.0968 46.2135 53.0854 46.2021C52.1688 47.1177 51.2806 48.0049 50.3754 48.9149H50.3697ZM50.2558 46.913C50.5462 46.6514 50.8536 46.3727 51.1098 46.1396C50.5177 45.5481 49.9256 44.9566 49.379 44.4107C49.1 44.6609 48.7983 44.9339 48.5193 45.1841C49.1228 45.787 49.7149 46.3784 50.2501 46.913H50.2558Z" fill="#252525"/>
<path d="M38.4192 27.0703C40.5201 27.0703 42.6153 27.0703 44.7161 27.0703C45.7523 27.0703 46.3331 27.6447 46.3331 28.6798C46.3331 32.4105 46.3331 36.1356 46.3331 39.8663C46.3331 40.8729 45.7523 41.4473 44.7332 41.4473C40.5201 41.4473 36.3069 41.4473 32.0938 41.4473C31.0861 41.4473 30.4996 40.8672 30.4996 39.8606C30.4996 36.1299 30.4996 32.4048 30.4996 28.6741C30.4996 27.6333 31.069 27.0703 32.1166 27.0703C34.2174 27.0703 36.3126 27.0703 38.4135 27.0703H38.4192ZM31.9628 39.98H44.8755V31.4096H40.577C40.577 32.092 40.577 32.746 40.577 33.4057C40.5713 33.9915 40.3094 34.2531 39.723 34.2588C38.8861 34.2645 38.0434 34.2588 37.2065 34.2588C36.5005 34.2588 36.2671 34.02 36.2614 33.3148C36.2614 32.6778 36.2614 32.0408 36.2614 31.4039H31.9628V39.98ZM31.9628 28.5262V29.9196H36.2272V28.5262H31.9628ZM39.1081 32.8143V28.5433H37.736V32.8143H39.1081ZM40.5941 29.9196H44.8585V28.5376H40.5941V29.9196Z" fill="#252525"/>
<path d="M40.3777 38.1038V36.864H42.9113V38.1038H40.3777Z" fill="#252525"/>
<path d="M39.0454 38.1208H37.7985V36.8696H39.0454V38.1208Z" fill="#252525"/>
</g>
<defs>
<clipPath id="clip0_2761_2359">
<rect width="78" height="77.9133" fill="white"/>
</clipPath>
</defs>
</svg>
