<svg width="78" height="79" viewBox="0 0 78 79" fill="none" xmlns="http://www.w3.org/2000/svg">
<g clip-path="url(#clip0_2761_2375)">
<path d="M38.9968 78.1587C60.5342 78.1587 77.9937 60.6992 77.9937 39.1619C77.9937 17.6245 60.5342 0.165039 38.9968 0.165039C17.4595 0.165039 0 17.6245 0 39.1619C0 60.6992 17.4595 78.1587 38.9968 78.1587Z" fill="#E2E2E2"/>
<path d="M34.8785 49.2738C39.256 49.2738 42.8046 45.7252 42.8046 41.3477C42.8046 36.9703 39.256 33.4216 34.8785 33.4216C30.5011 33.4216 26.9525 36.9703 26.9525 41.3477C26.9525 45.7252 30.5011 49.2738 34.8785 49.2738Z" fill="#46E7D3"/>
<path d="M52.0169 43.7109C51.6621 43.9897 51.3326 44.2494 50.9778 44.5346C50.5407 43.9897 50.1288 43.4701 49.7107 42.9506C47.4551 40.1058 45.1996 37.2547 42.9314 34.4163C42.6906 34.1122 42.4118 33.8334 42.1141 33.5863C41.3854 32.9907 40.6505 32.9907 39.9155 33.5546C39.2249 34.0868 39.0032 34.8851 39.396 35.6961C39.9409 36.8176 40.5111 37.9263 41.1003 39.0224C42.6463 41.9052 44.1859 44.8007 45.7761 47.6581C46.3844 48.7542 46.5808 49.8946 46.5428 51.1238C46.5111 52.0995 46.4604 53.0942 46.5745 54.0573C46.8342 56.1291 47.6579 57.9284 49.3749 59.2273C49.6663 59.449 49.9831 59.6391 50.2872 59.8418C50.6674 60.0826 50.7878 60.4818 50.5787 60.8049C50.3633 61.147 50.0275 61.2104 49.6156 60.9823C47.2714 59.6581 45.9219 57.6306 45.377 55.0266C45.2123 54.2283 45.2123 54.241 44.3759 54.2347C43.8627 54.2347 43.3495 54.1966 42.8427 54.1713C42.2091 54.1396 41.6706 53.8799 41.2461 53.43C40.3654 52.505 39.491 51.5673 38.6294 50.6169C38.3253 50.2811 38.0465 49.9136 37.774 49.5462C36.9694 48.4564 37.0518 47.2526 37.9958 46.2769C38.0401 46.2325 38.0845 46.1755 38.1542 46.0995C37.8184 45.8968 37.5016 45.7003 37.1785 45.5039C31.1024 41.8862 25.0201 38.2685 18.944 34.6507C17.5312 33.8081 17.151 32.3318 17.9873 30.9189C20.2049 27.1808 22.4224 23.449 24.6463 19.7172C25.4889 18.3044 26.9778 17.9242 28.3844 18.7669C34.2513 22.2579 40.1183 25.7489 45.9852 29.2463C46.6061 29.6138 47.2334 29.9812 47.848 30.355C49.1721 31.166 49.5396 32.6676 48.754 34.0045C48.6336 34.2135 48.5069 34.4226 48.3612 34.6761C48.9694 34.8915 49.5586 35.0879 50.1352 35.297C51.2249 35.6834 52.3084 36.0953 53.4108 36.4564C54.6273 36.8556 55.4129 37.6919 55.9895 38.788C56.7244 40.1882 57.1236 41.6834 57.4023 43.223C58.0359 46.7077 58.6758 50.1924 59.3031 53.6771C59.6579 55.6475 59.9747 57.6306 60.3105 59.6074C60.3802 60.0192 60.1521 60.374 59.7783 60.4437C59.4044 60.5198 59.0623 60.2663 58.9926 59.8545C58.5174 57.0858 58.0739 54.317 57.5734 51.5546C56.9652 48.203 56.3443 44.8513 55.6346 41.5187C55.4446 40.6127 54.9314 39.77 54.5132 38.9274C54.2154 38.3255 53.6706 37.9643 53.037 37.7426C51.3326 37.1534 49.6283 36.5578 47.9303 35.9495C47.7212 35.8735 47.6072 35.9052 47.5058 36.1016C47.3664 36.3677 47.2144 36.6338 47.0433 36.8746C46.8722 37.109 46.8913 37.2801 47.075 37.5145C48.6463 39.4723 50.1985 41.4363 51.7571 43.4004C51.8268 43.4891 51.8902 43.5778 51.9852 43.7046L52.0169 43.7109ZM45.9916 36.1079C46.5935 35.0879 47.1764 34.1375 47.7212 33.1681C48.019 32.6296 47.8416 31.9897 47.3538 31.6159C47.2397 31.5272 47.113 31.4575 46.9863 31.3814C44.6357 29.9812 42.2788 28.581 39.9219 27.1808C35.8733 24.7732 31.8311 22.3593 27.7761 19.958C26.9398 19.4638 26.3062 19.6285 25.8057 20.4649C23.5945 24.165 21.3897 27.8651 19.1848 31.5715C18.6779 32.4205 18.849 33.0478 19.7043 33.561C23.5438 35.8482 27.377 38.1291 31.2165 40.41C33.8078 41.9559 36.4118 43.4891 38.9905 45.0478C39.7255 45.4913 40.5871 45.2948 40.9736 44.5346C41.1827 44.1291 41.4551 43.7552 41.6642 43.3561C41.7212 43.2421 41.7212 43.052 41.6642 42.9379C41.4995 42.5768 41.2841 42.2347 41.1003 41.8799C40.15 40.0678 39.1869 38.2558 38.2556 36.4311C37.8691 35.6771 37.7487 34.8661 37.9958 34.0298C38.5723 32.091 41.018 31.223 42.6906 32.3698C43.0708 32.6296 43.4129 32.9654 43.7234 33.3075C44.1415 33.77 44.509 34.2769 44.9018 34.7584C45.2503 35.1893 45.5924 35.6264 45.9789 36.1079H45.9916ZM43.9324 52.9105C43.9324 52.9105 43.9324 52.9041 43.9324 52.8978C44.2429 52.8978 44.5533 52.8978 44.8701 52.8978C45.0602 52.8978 45.1489 52.8408 45.1489 52.6317C45.1489 52.2199 45.1679 51.808 45.1996 51.3962C45.2186 51.1618 45.1552 51.0604 44.9081 50.9781C44.0718 50.712 43.2418 50.4268 42.4372 50.0847C42.1141 49.9453 41.7973 49.6919 41.5882 49.4068C41.037 48.6655 40.5428 47.8862 40.0423 47.1069C39.9155 46.9105 39.7888 46.8598 39.5734 46.8978C38.7054 47.0562 38.2999 47.9876 38.8258 48.6908C39.8332 50.053 40.9483 51.3329 42.1964 52.4796C42.3928 52.6634 42.6906 52.7711 42.9631 52.8281C43.2735 52.8978 43.603 52.8851 43.9261 52.9041L43.9324 52.9105ZM45.0982 49.7172C45.0982 49.2167 42.9187 44.9781 42.5005 44.5852C42.3485 44.8323 42.2154 45.0921 42.0444 45.3202C41.848 45.5863 41.6515 45.8714 41.3918 46.0678C41.1257 46.2642 41.151 46.4099 41.3031 46.6317C41.7149 47.2273 42.1014 47.8355 42.5322 48.4184C42.6969 48.6402 42.9124 48.8746 43.1531 48.9823C43.7677 49.2547 44.414 49.4638 45.0982 49.7172Z" fill="#252525"/>
<path d="M28.0296 30.8999C27.8902 30.8492 27.6304 30.7859 27.4023 30.6591C26.6167 30.2093 25.8437 29.7468 25.0708 29.2779C24.3612 28.8471 24.1648 28.0931 24.5829 27.3709C24.9314 26.7626 25.2925 26.1607 25.66 25.5588C26.0528 24.9252 26.8131 24.7098 27.4657 25.0836C28.3084 25.5652 29.1384 26.0594 29.962 26.5789C30.5893 26.978 30.7667 27.7193 30.3992 28.3656C30.038 29.0055 29.6579 29.6327 29.2714 30.26C29.018 30.6718 28.6315 30.8682 28.0296 30.8999ZM29.2651 27.7003C28.4794 27.2315 27.7318 26.7816 26.9715 26.3381C26.9145 26.3064 26.7624 26.3381 26.7308 26.3888C26.3886 26.94 26.0592 27.5039 25.7107 28.0931C26.5407 28.5873 27.3263 29.0562 28.15 29.544C28.5238 28.9231 28.8786 28.3402 29.2651 27.7003Z" fill="#252525"/>
<path d="M22.8596 31.052C22.923 31.0773 23.0623 31.1217 23.1827 31.1977C25.7551 32.7247 28.3274 34.2516 30.8997 35.7848C31.0011 35.8482 31.1088 35.9179 31.1975 36.0003C31.4193 36.2157 31.4509 36.5705 31.2799 36.8302C31.1088 37.0837 30.811 37.1851 30.5196 37.0837C30.4182 37.0457 30.3168 36.9886 30.2218 36.938C27.6685 35.4174 25.1151 33.9031 22.5618 32.3825C22.1563 32.1418 22.0233 31.8566 22.1436 31.5082C22.245 31.2357 22.4985 31.052 22.8596 31.0583V31.052Z" fill="#252525"/>
<path d="M32.3632 36.7224C32.4456 36.7541 32.566 36.7794 32.6674 36.8365C33.4467 37.2926 34.2196 37.7488 34.9926 38.2177C35.3157 38.4141 35.4298 38.7055 35.3411 39.0033C35.2143 39.4215 34.7582 39.6052 34.34 39.3644C33.6938 38.997 33.0538 38.6105 32.4139 38.2303C32.2429 38.129 32.0591 38.0403 31.9007 37.9199C31.6536 37.7298 31.5776 37.47 31.679 37.1786C31.7803 36.8871 32.0084 36.7478 32.3569 36.7224H32.3632Z" fill="#252525"/>
</g>
<defs>
<clipPath id="clip0_2761_2375">
<rect width="78" height="78" fill="white" transform="translate(0 0.165039)"/>
</clipPath>
</defs>
</svg>
