<svg width="79" height="79" viewBox="0 0 79 79" fill="none" xmlns="http://www.w3.org/2000/svg">
<g clip-path="url(#clip0_2662_3091)">
<path d="M39.8843 78.4143C61.4216 78.4143 78.8811 60.9548 78.8811 39.4175C78.8811 17.8801 61.4216 0.420654 39.8843 0.420654C18.3469 0.420654 0.887451 17.8801 0.887451 39.4175C0.887451 60.9548 18.3469 78.4143 39.8843 78.4143Z" fill="#CEF0F6"/>
<path d="M28.2138 51.8167C32.5247 51.8167 36.0195 48.322 36.0195 44.011C36.0195 39.7001 32.5247 36.2053 28.2138 36.2053C23.9028 36.2053 20.4081 39.7001 20.4081 44.011C20.4081 48.322 23.9028 51.8167 28.2138 51.8167Z" fill="#C5EE94"/>
<path d="M27.8146 25.0353V44.3849V55.9604C27.8146 56.6383 28.011 56.8284 28.6826 56.8284C35.0944 56.8284 41.5062 56.8284 47.9181 56.8284C48.1968 56.8284 48.4439 56.8284 48.6784 56.7777C50.6615 56.3975 51.954 54.8389 51.9603 52.8115C51.9603 52.1589 51.9603 51.5063 51.9603 50.8537L51.9223 25.0987C51.9223 24.3891 51.7259 24.199 51.0163 24.199H50.3447C49.6097 24.199 48.8811 24.199 48.1462 24.199C48.0131 24.199 47.8104 24.1864 47.6646 24.0343C47.5062 23.8696 47.5126 23.6415 47.5126 23.5654C47.5252 23.2677 47.5316 22.9192 47.4936 22.5961C47.4492 22.2096 47.1768 21.9815 46.784 22.0132C46.4418 22.0322 46.2011 22.2983 46.1884 22.6721C46.1757 22.9889 46.1821 23.3057 46.1884 23.6225C46.1884 23.6922 46.1884 23.8949 46.0427 24.047C45.9413 24.1483 45.7892 24.2117 45.6245 24.199C44.1166 24.199 42.615 24.199 41.1071 24.199C40.9297 24.199 40.7903 24.1483 40.6889 24.047C40.5369 23.8949 40.5369 23.6922 40.5369 23.6288V23.4387C40.5369 23.16 40.5495 22.8812 40.5242 22.6087C40.4925 22.2349 40.2201 22.0005 39.8526 22.0132C39.4915 22.0195 39.2444 22.2793 39.2254 22.6531C39.2127 22.9572 39.2127 23.2613 39.2254 23.5654C39.2254 23.6985 39.219 23.8886 39.0733 24.0343C38.9149 24.199 38.6868 24.1927 38.6171 24.199C37.1282 24.1927 35.6456 24.199 34.1567 24.199C34.087 24.199 33.8779 24.199 33.7259 24.047C33.5738 23.8949 33.5738 23.6858 33.5738 23.6161V23.5338C33.5738 23.217 33.5802 22.8812 33.5485 22.5707C33.5105 22.2159 33.2444 22.0005 32.8769 22.0132C32.5221 22.0258 32.275 22.2793 32.256 22.6404C32.237 22.9826 32.237 23.274 32.256 23.5464C32.256 23.6225 32.275 23.8632 32.1103 24.0343C31.9582 24.1864 31.7554 24.199 31.6097 24.2054C31.1472 24.2054 30.6847 24.199 30.2159 24.199C29.6773 24.199 29.1388 24.199 28.6002 24.199C28.4925 24.199 28.3595 24.199 28.2518 24.237C27.973 24.3257 27.8019 24.4968 27.8019 25.029L27.8146 25.0353ZM29.1388 43.1621V26.2392C29.1388 25.9794 29.1388 25.8083 29.2782 25.6689C29.4175 25.5295 29.5823 25.5359 29.7914 25.5359H29.9751C30.1968 25.5359 30.4186 25.5359 30.6403 25.5359C30.9635 25.5359 31.2929 25.5359 31.6161 25.5359C31.6984 25.5359 31.9329 25.5295 32.1039 25.7006C32.2686 25.8717 32.256 26.1061 32.2496 26.1885C32.237 26.3532 32.2496 26.5179 32.256 26.6827C32.2877 27.0311 32.5411 27.2782 32.8896 27.2909C33.2317 27.3099 33.5168 27.0818 33.5675 26.746C33.5992 26.5433 33.5992 26.3279 33.5928 26.1188C33.5928 25.9984 33.6055 25.8273 33.7386 25.6879C33.8336 25.5866 33.973 25.5422 34.144 25.5422C35.6393 25.5422 37.1345 25.5422 38.6298 25.5422C38.6931 25.5422 38.9022 25.5422 39.0543 25.6943C39.1557 25.7956 39.2 25.935 39.2 26.1124C39.2 26.3025 39.2 26.5179 39.219 26.7207C39.257 27.0501 39.5231 27.2846 39.8589 27.2909C40.1884 27.2719 40.4735 27.0755 40.5179 26.7524C40.5432 26.5749 40.5432 26.3912 40.5432 26.1948V26.0934C40.5432 26.0301 40.5432 25.8337 40.6889 25.6879C40.8346 25.5422 41.0374 25.5359 41.0944 25.5422C42.6023 25.5422 44.1039 25.5422 45.6118 25.5422C45.8082 25.5295 45.9223 25.5929 46.0237 25.6943C46.1187 25.7956 46.1694 25.9287 46.1631 26.0998C46.1631 26.2962 46.1631 26.4989 46.1757 26.6953C46.2011 27.0248 46.4545 27.2719 46.7966 27.2909C47.1324 27.3162 47.4239 27.0945 47.4809 26.784C47.5126 26.6003 47.5126 26.4102 47.5189 26.2011V26.0744C47.5189 25.7386 47.7217 25.5422 48.0575 25.5422C48.7227 25.5422 49.3816 25.5422 50.0406 25.5422C50.2053 25.5295 50.351 25.5929 50.4524 25.6943C50.5474 25.7956 50.5918 25.9287 50.5854 26.0871C50.5854 26.1314 50.5854 26.1758 50.5854 26.2138V26.2962L50.5918 32.0998C50.5981 38.9551 50.6044 45.8168 50.6171 52.6721C50.6171 53.7809 50.2053 54.5855 49.3436 55.1241C48.9445 55.3775 48.4756 55.4979 47.9244 55.4979H43.9772C39.2444 55.4979 34.5052 55.4979 29.766 55.5042C29.69 55.5042 29.4492 55.5042 29.2845 55.3395C29.1198 55.1747 29.1198 54.9466 29.1198 54.8136C29.1198 50.9298 29.1198 47.0459 29.1198 43.1684L29.1388 43.1621Z" fill="#252525" stroke="black" stroke-width="0.2"/>
<path d="M41.6456 34.0068H39.9857H37.1979C36.0385 34.0068 34.8727 34.0068 33.7069 34.0068C33.3204 34.0068 33.048 34.2793 33.0416 34.6594C33.0416 35.0396 33.3077 35.3183 33.6942 35.3437C33.7576 35.3437 33.8209 35.3437 33.8843 35.3437H33.954H46.0807C46.1504 35.3437 46.2201 35.3437 46.2834 35.3437C46.6763 35.312 46.936 35.0142 46.917 34.6151C46.898 34.2412 46.6192 34.0005 46.2011 34.0005C44.6805 34.0005 43.1599 34.0005 41.6393 34.0005L41.6456 34.0068Z" fill="#252525"/>
<path d="M46.5052 39.7914C46.3658 39.7471 46.1947 39.7407 46.011 39.7407C44.465 39.7407 42.9254 39.7407 41.3795 39.7407H34.011C33.8843 39.7407 33.7639 39.7407 33.6498 39.7534C33.3457 39.7787 33.0923 40.0005 33.0479 40.2729C32.9909 40.6151 33.143 40.9065 33.4281 41.0142C33.5548 41.0649 33.7259 41.0902 33.9223 41.0902C37.9582 41.0902 41.9877 41.0902 46.0236 41.0902C46.182 41.0902 46.3024 41.0776 46.4101 41.0586C46.6952 41.0015 46.898 40.7608 46.917 40.4693C46.936 40.1462 46.7713 39.8801 46.4988 39.7914H46.5052Z" fill="#252525"/>
<path d="M33.048 46.0766C33.048 46.4884 33.3267 46.7355 33.7893 46.7419C34.1757 46.7419 34.5622 46.7419 34.9487 46.7419H35.4619H36.0195C36.3869 46.7419 36.7607 46.7419 37.1282 46.7419C37.5591 46.7419 37.8568 46.4758 37.8632 46.0893C37.8632 45.9055 37.8061 45.7408 37.6858 45.6141C37.5527 45.4747 37.3626 45.3987 37.1409 45.3987C36.5897 45.3987 36.0321 45.3923 35.4809 45.3923C34.9297 45.3923 34.3405 45.3923 33.7702 45.3987C33.3267 45.3987 33.0416 45.6711 33.0416 46.0766H33.048Z" fill="#252525"/>
<path d="M41.5062 45.4303C41.1514 45.462 40.955 45.8105 40.9804 46.1146C41.012 46.4694 41.2718 46.7228 41.6266 46.7355C41.7913 46.7418 41.9561 46.7355 42.1208 46.7355H42.3552H42.596C42.7797 46.7355 42.9571 46.7355 43.1409 46.7355C43.4893 46.7228 43.7618 46.4757 43.7871 46.1463C43.8125 45.8105 43.6414 45.4557 43.2676 45.424C42.691 45.3733 42.1018 45.3733 41.5062 45.424V45.4303Z" fill="#252525"/>
</g>
<defs>
<clipPath id="clip0_2662_3091">
<rect width="78" height="78" fill="white" transform="translate(0.887451 0.420654)"/>
</clipPath>
</defs>
</svg>
